<svg version="1.1" xmlns="http://www.w3.org/2000/svg" xmlns:xlink="http://www.w3.org/1999/xlink" width="400" height="400" viewBox="0 0 400 400"><defs/><g><rect fill="rgb(255,255,255)" stroke="none" x="0" y="0" width="400" height="400" transform="matrix(1 0 0 1 0 0)" fill-opacity="1"/><path fill="rgb(0,0,0)" stroke="none" paint-order="stroke fill markers" d=" M 4.46039603960396 200 A 0.5 0.5 0 1 1 4.460395789603981 199.99950000008334" fill-opacity="1"/><path fill="none" stroke="rgb(255,0,0)" paint-order="fill stroke markers" d=" M 0.7201978446809504 3.9603960396039604 C 0.035107899773811235 3.9603960396039604 0.2122678661368399 3.9603960396039604 0.5180250059614981 3.9603960396039604" stroke-opacity="1" stroke-linecap="round" stroke-miterlimit="10" stroke-dasharray=""/><path fill="rgb(0,0,0)" stroke="none" paint-order="stroke fill markers" d=" M 8.42079207920792 196.36258466302192 A 0.5 0.5 0 1 1 8.420791829207941 196.36208466310526" fill-opacity="1"/><path fill="none" stroke="rgb(255,0,0)" paint-order="fill stroke markers" d=" M 1.364067270823504 7.920792079207921 C 1.5970353006155922 7.920792079207921 3.636684682170428 7.920792079207921 3.109961629389392 7.920792079207921" stroke-opacity="1" stroke-linecap="round" stroke-miterlimit="10" stroke-dasharray=""/><path fill="rgb(0,0,0)" stroke="none" paint-order="stroke fill markers" d=" M 12.381188118811881 -113.6914968268718 A 0.5 0.5 0 1 1 12.381187868811901 -113.69199682678847" fill-opacity="1"/><path fill="none" stroke="rgb(255,0,0)" paint-order="fill stroke markers" d=" M -364.4823395352528 11.881188118811881 C -295.8805344431588 11.881188118811881 126.56951767676802 11.881188118811881 -72.233213379474 11.881188118811881" stroke-opacity="1" stroke-linecap="round" stroke-miterlimit="10" stroke-dasharray=""/><path fill="rgb(0,0,0)" stroke="none" paint-order="stroke fill markers" d=" M 16.34158415841584 590.7373701472513 A 0.5 0.5 0 1 1 16.341583908415863 590.7368701473347" fill-opacity="1"/><path fill="none" stroke="rgb(255,0,0)" paint-order="fill stroke markers" d=" M -111.24139131118376 15.841584158415841 C 270.4142244596716 15.841584158415841 554.336478835129 15.841584158415841 544.578915295786 15.841584158415841" stroke-opacity="1" stroke-linecap="round" stroke-miterlimit="10" stroke-dasharray=""/><path fill="rgb(0,0,0)" stroke="none" paint-order="stroke fill markers" d=" M 20.301980198019802 169.93778696910147 A 0.5 0.5 0 1 1 20.301979948019824 169.9372869691848" fill-opacity="1"/><path fill="none" stroke="rgb(255,0,0)" paint-order="fill stroke markers" d=" M 107.89686276495705 19.801980198019802 C 7.717171911867544 19.801980198019802 -91.47171994556328 19.801980198019802 -55.3887975640176 19.801980198019802" stroke-opacity="1" stroke-linecap="round" stroke-miterlimit="10" stroke-dasharray=""/><path fill="rgb(0,0,0)" stroke="none" paint-order="stroke fill markers" d=" M 24.262376237623762 211.27102813953766 A 0.5 0.5 0 1 1 24.262375987623784 211.270528139621" fill-opacity="1"/><path fill="none" stroke="rgb(255,0,0)" paint-order="fill stroke markers" d=" M -63.84487903776059 23.762376237623762 C -35.80905958059312 23.762376237623762 64.91758095269995 23.762376237623762 83.82870302118963 23.762376237623762" stroke-opacity="1" stroke-linecap="round" stroke-miterlimit="10" stroke-dasharray=""/><path fill="rgb(0,0,0)" stroke="none" paint-order="stroke fill markers" d=" M 28.222772277227723 181.30421693708755 A 0.5 0.5 0 1 1 28.222772027227744 181.3037169371709" fill-opacity="1"/><path fill="none" stroke="rgb(255,0,0)" paint-order="fill stroke markers" d=" M 41.49196481879609 27.722772277227723 C -6.6451543270063045 27.722772277227723 -90.38268702618124 27.722772277227723 93.22923435707932 27.722772277227723" stroke-opacity="1" stroke-linecap="round" stroke-miterlimit="10" stroke-dasharray=""/><path fill="rgb(0,0,0)" stroke="none" paint-order="stroke fill markers" d=" M 32.18316831683168 209.68319371471358 A 0.5 0.5 0 1 1 32.183168066831705 209.68269371479693" fill-opacity="1"/><path fill="none" stroke="rgb(255,0,0)" paint-order="fill stroke markers" d=" M 6.7143455541029455 31.683168316831683 C -10.228982702594406 31.683168316831683 17.052992784760768 31.683168316831683 2.757277032524535 31.683168316831683" stroke-opacity="1" stroke-linecap="round" stroke-miterlimit="10" stroke-dasharray=""/><path fill="rgb(0,0,0)" stroke="none" paint-order="stroke fill markers" d=" M 36.14356435643565 321.64392383337366 A 0.5 0.5 0 1 1 36.14356410643567 321.643423833457" fill-opacity="1"/><path fill="none" stroke="rgb(255,0,0)" paint-order="fill stroke markers" d=" M -54.79201042503014 35.64356435643565 C 152.3821989029789 35.64356435643565 145.00040465226263 35.64356435643565 -83.87460859433904 35.64356435643565" stroke-opacity="1" stroke-linecap="round" stroke-miterlimit="10" stroke-dasharray=""/><path fill="rgb(0,0,0)" stroke="none" paint-order="stroke fill markers" d=" M 40.103960396039604 425.71253709967124 A 0.5 0.5 0 1 1 40.103960146039626 425.7120370997546" fill-opacity="1"/><path fill="none" stroke="rgb(255,0,0)" paint-order="fill stroke markers" d=" M -264.91967533555754 39.603960396039604 C 131.1060545222998 39.603960396039604 -259.7808051099212 39.603960396039604 111.92527372373067 39.603960396039604" stroke-opacity="1" stroke-linecap="round" stroke-miterlimit="10" stroke-dasharray=""/><path fill="rgb(0,0,0)" stroke="none" paint-order="stroke fill markers" d=" M 44.06435643564356 727.2248470400045 A 0.5 0.5 0 1 1 44.06435618564358 727.2243470400879" fill-opacity="1"/><path fill="none" stroke="rgb(255,0,0)" paint-order="fill stroke markers" d=" M -197.43160508907144 43.56435643564356 C 269.1081352913392 43.56435643564356 -328.2255469617591 43.56435643564356 594.6525465043964 43.56435643564356" stroke-opacity="1" stroke-linecap="round" stroke-miterlimit="10" stroke-dasharray=""/><path fill="rgb(0,0,0)" stroke="none" paint-order="stroke fill markers" d=" M 48.024752475247524 562.7684805809462 A 0.5 0.5 0 1 1 48.024752225247546 562.7679805810295" fill-opacity="1"/><path fill="none" stroke="rgb(255,0,0)" paint-order="fill stroke markers" d=" M 159.3824841563758 47.524752475247524 C 599.042216537928 47.524752475247524 -687.0529045235311 47.524752475247524 -64.29041284881768 47.524752475247524" stroke-opacity="1" stroke-linecap="round" stroke-miterlimit="10" stroke-dasharray=""/><path fill="rgb(0,0,0)" stroke="none" paint-order="stroke fill markers" d=" M 51.98514851485149 759.7323700131484 A 0.5 0.5 0 1 1 51.98514826485151 759.7318700132317" fill-opacity="1"/><path fill="none" stroke="rgb(255,0,0)" paint-order="fill stroke markers" d=" M -131.05360001125936 51.48514851485149 C 247.6722193175644 51.48514851485149 -192.94032619157755 51.48514851485149 372.83093561479177 51.48514851485149" stroke-opacity="1" stroke-linecap="round" stroke-miterlimit="10" stroke-dasharray=""/><path fill="rgb(0,0,0)" stroke="none" paint-order="stroke fill markers" d=" M 55.945544554455445 -958.3409675106207 A 0.5 0.5 0 1 1 55.94554430445547 -958.3414675105373" fill-opacity="1"/><path fill="none" stroke="rgb(255,0,0)" paint-order="fill stroke markers" d=" M 750.1258119552414 55.445544554455445 C 810.3825648437695 55.445544554455445 468.6565024129935 55.445544554455445 275.52719770559463 55.445544554455445" stroke-opacity="1" stroke-linecap="round" stroke-miterlimit="10" stroke-dasharray=""/><path fill="rgb(0,0,0)" stroke="none" paint-order="stroke fill markers" d=" M 59.9059405940594 324.3602739431449 A 0.5 0.5 0 1 1 59.905940344059424 324.3597739432282" fill-opacity="1"/><path fill="none" stroke="rgb(255,0,0)" paint-order="fill stroke markers" d=" M 76.66682877342457 59.4059405940594 C -895.2816757563378 59.4059405940594 -594.1453820363672 59.4059405940594 -1206.065612644905 59.4059405940594" stroke-opacity="1" stroke-linecap="round" stroke-miterlimit="10" stroke-dasharray=""/><path fill="rgb(0,0,0)" stroke="none" paint-order="stroke fill markers" d=" M 63.866336633663366 1160.9759931689057 A 0.5 0.5 0 1 1 63.86633638366339 1160.975493168989" fill-opacity="1"/><path fill="none" stroke="rgb(255,0,0)" paint-order="fill stroke markers" d=" M 20.753604495339385 63.366336633663366 C -947.9073104210602 63.366336633663366 769.4168064324236 63.366336633663366 256.8376481940571 63.366336633663366" stroke-opacity="1" stroke-linecap="round" stroke-miterlimit="10" stroke-dasharray=""/><path fill="rgb(0,0,0)" stroke="none" paint-order="stroke fill markers" d=" M 67.82673267326733 657.7515734486255 A 0.5 0.5 0 1 1 67.82673242326734 657.7510734487089" fill-opacity="1"/><path fill="none" stroke="rgb(255,0,0)" paint-order="fill stroke markers" d=" M -439.63937784230797 67.32673267326733 C 285.11603656483555 67.32673267326733 -1260.8498360527508 67.32673267326733 1147.8944918869547 67.32673267326733" stroke-opacity="1" stroke-linecap="round" stroke-miterlimit="10" stroke-dasharray=""/><path fill="rgb(0,0,0)" stroke="none" paint-order="stroke fill markers" d=" M 71.7871287128713 336.3695764785293 A 0.5 0.5 0 1 1 71.78712846287131 336.36907647861267" fill-opacity="1"/><path fill="none" stroke="rgb(255,0,0)" paint-order="fill stroke markers" d=" M -536.6387947602587 71.2871287128713 C -305.9607808448094 71.2871287128713 748.257101327246 71.2871287128713 775.122519152076 71.2871287128713" stroke-opacity="1" stroke-linecap="round" stroke-miterlimit="10" stroke-dasharray=""/><path fill="rgb(0,0,0)" stroke="none" paint-order="stroke fill markers" d=" M 75.74752475247524 -502.6912251696683 A 0.5 0.5 0 1 1 75.74752450247526 -502.69172516958497" fill-opacity="1"/><path fill="none" stroke="rgb(255,0,0)" paint-order="fill stroke markers" d=" M 753.9833536067152 75.24752475247524 C 1067.2594361742886 75.24752475247524 -789.0291913628531 75.24752475247524 -978.7851717097368 75.24752475247524" stroke-opacity="1" stroke-linecap="round" stroke-miterlimit="10" stroke-dasharray=""/><path fill="rgb(0,0,0)" stroke="none" paint-order="stroke fill markers" d=" M 79.70792079207921 27.959560257689816 A 0.5 0.5 0 1 1 79.70792054207922 27.95906025777315" fill-opacity="1"/><path fill="none" stroke="rgb(255,0,0)" paint-order="fill stroke markers" d=" M 346.56372117654615 79.20792079207921 C -439.2566121903503 79.20792079207921 -537.4846859333672 79.20792079207921 428.7684676574638 79.20792079207921" stroke-opacity="1" stroke-linecap="round" stroke-miterlimit="10" stroke-dasharray=""/><path fill="rgb(0,0,0)" stroke="none" paint-order="stroke fill markers" d=" M 83.66831683168317 149.3211391905483 A 0.5 0.5 0 1 1 83.66831658168319 149.32063919063165" fill-opacity="1"/><path fill="none" stroke="rgb(255,0,0)" paint-order="fill stroke markers" d=" M -103.44691932471532 83.16831683168317 C -321.64611518066397 83.16831683168317 -221.98549091709148 83.16831683168317 116.63839730851143 83.16831683168317" stroke-opacity="1" stroke-linecap="round" stroke-miterlimit="10" stroke-dasharray=""/><path fill="rgb(0,0,0)" stroke="none" paint-order="stroke fill markers" d=" M 87.62871287128712 318.7652572589335 A 0.5 0.5 0 1 1 87.62871262128714 318.76475725901685" fill-opacity="1"/><path fill="none" stroke="rgb(255,0,0)" paint-order="fill stroke markers" d=" M 375.71000177018806 87.12871287128712 C -343.3648481971701 87.12871287128712 -265.71247818394306 87.12871287128712 -210.7125792166743 87.12871287128712" stroke-opacity="1" stroke-linecap="round" stroke-miterlimit="10" stroke-dasharray=""/><path fill="rgb(0,0,0)" stroke="none" paint-order="stroke fill markers" d=" M 91.58910891089108 313.8654957330129 A 0.5 0.5 0 1 1 91.5891086608911 313.86499573309624" fill-opacity="1"/><path fill="none" stroke="rgb(255,0,0)" paint-order="fill stroke markers" d=" M -370.4442112494442 91.08910891089108 C -85.70381823947648 91.08910891089108 393.1341052177407 91.08910891089108 -324.4011560876687 91.08910891089108" stroke-opacity="1" stroke-linecap="round" stroke-miterlimit="10" stroke-dasharray=""/><path fill="rgb(0,0,0)" stroke="none" paint-order="stroke fill markers" d=" M 95.54950495049505 377.1395192513513 A 0.5 0.5 0 1 1 95.54950470049506 377.13901925143466" fill-opacity="1"/><path fill="none" stroke="rgb(255,0,0)" paint-order="fill stroke markers" d=" M 154.89034886039772 95.04950495049505 C -109.37245284573501 95.04950495049505 -417.82680756801653 95.04950495049505 413.25730622217077 95.04950495049505" stroke-opacity="1" stroke-linecap="round" stroke-miterlimit="10" stroke-dasharray=""/><path fill="rgb(0,0,0)" stroke="none" paint-order="stroke fill markers" d=" M 99.50990099009901 183.802675782646 A 0.5 0.5 0 1 1 99.50990074009903 183.80217578272934" fill-opacity="1"/><path fill="none" stroke="rgb(255,0,0)" paint-order="fill stroke markers" d=" M 42.71547059422058 99.00990099009901 C 8.808655153632662 99.00990099009901 45.687869742242114 99.00990099009901 47.08336582201023 99.00990099009901" stroke-opacity="1" stroke-linecap="round" stroke-miterlimit="10" stroke-dasharray=""/><path fill="rgb(0,0,0)" stroke="none" paint-order="stroke fill markers" d=" M 103.47029702970298 135.25532126330472 A 0.5 0.5 0 1 1 103.47029677970299 135.25482126338807" fill-opacity="1"/><path fill="none" stroke="rgb(255,0,0)" paint-order="fill stroke markers" d=" M -160.1376987113833 102.97029702970298 C -21.183274078846715 102.97029702970298 88.69697542889102 102.97029702970298 -30.56351736376437 102.97029702970298" stroke-opacity="1" stroke-linecap="round" stroke-miterlimit="10" stroke-dasharray=""/><path fill="rgb(0,0,0)" stroke="none" paint-order="stroke fill markers" d=" M 107.43069306930693 448.6857544010995 A 0.5 0.5 0 1 1 107.43069281930694 448.6852544011828" fill-opacity="1"/><path fill="none" stroke="rgb(255,0,0)" paint-order="fill stroke markers" d=" M 65.29569560453511 106.93069306930693 C -140.42965757947596 106.93069306930693 -114.92292555920338 106.93069306930693 -54.699635626650185 106.93069306930693" stroke-opacity="1" stroke-linecap="round" stroke-miterlimit="10" stroke-dasharray=""/><path fill="rgb(0,0,0)" stroke="none" paint-order="stroke fill markers" d=" M 111.39108910891089 166.23043850885006 A 0.5 0.5 0 1 1 111.3910888589109 166.2299385089334" fill-opacity="1"/><path fill="none" stroke="rgb(255,0,0)" paint-order="fill stroke markers" d=" M -4.039369728388851 110.89108910891089 C 35.657309062533564 110.89108910891089 6.951806208063586 110.89108910891089 9.91507924250923 110.89108910891089" stroke-opacity="1" stroke-linecap="round" stroke-miterlimit="10" stroke-dasharray=""/><path fill="rgb(0,0,0)" stroke="none" paint-order="stroke fill markers" d=" M 115.35148514851485 384.6979562621979 A 0.5 0.5 0 1 1 115.35148489851487 384.69745626228126" fill-opacity="1"/><path fill="none" stroke="rgb(255,0,0)" paint-order="fill stroke markers" d=" M -85.11441484401855 114.85148514851485 C 132.38130264082386 114.85148514851485 132.80170650565273 114.85148514851485 -193.95819542615172 114.85148514851485" stroke-opacity="1" stroke-linecap="round" stroke-miterlimit="10" stroke-dasharray=""/><path fill="rgb(0,0,0)" stroke="none" paint-order="stroke fill markers" d=" M 119.3118811881188 320.9945075546977 A 0.5 0.5 0 1 1 119.31188093811882 320.99400755478104" fill-opacity="1"/><path fill="none" stroke="rgb(255,0,0)" paint-order="fill stroke markers" d=" M 38.639503526449786 118.8118811881188 C 93.39259281953795 118.8118811881188 18.75714327109469 118.8118811881188 -247.5386117008088 118.8118811881188" stroke-opacity="1" stroke-linecap="round" stroke-miterlimit="10" stroke-dasharray=""/><path fill="rgb(0,0,0)" stroke="none" paint-order="stroke fill markers" d=" M 123.27227722772277 580.3066274672274 A 0.5 0.5 0 1 1 123.27227697772278 580.3061274673107" fill-opacity="1"/><path fill="none" stroke="rgb(255,0,0)" paint-order="fill stroke markers" d=" M -8.879873174728534 122.77227722772277 C 430.13979822983504 122.77227722772277 -471.0300188246903 122.77227722772277 -335.20666928304576 122.77227722772277" stroke-opacity="1" stroke-linecap="round" stroke-miterlimit="10" stroke-dasharray=""/><path fill="rgb(0,0,0)" stroke="none" paint-order="stroke fill markers" d=" M 127.23267326732673 1018.7978041746899 A 0.5 0.5 0 1 1 127.23267301732675 1018.7973041747732" fill-opacity="1"/><path fill="none" stroke="rgb(255,0,0)" paint-order="fill stroke markers" d=" M 252.2610055799593 126.73267326732673 C -949.5186510836164 126.73267326732673 -479.66808780409133 126.73267326732673 -680.1259538889029 126.73267326732673" stroke-opacity="1" stroke-linecap="round" stroke-miterlimit="10" stroke-dasharray=""/><path fill="rgb(0,0,0)" stroke="none" paint-order="stroke fill markers" d=" M 131.19306930693068 922.7778495793028 A 0.5 0.5 0 1 1 131.1930690569307 922.7773495793862" fill-opacity="1"/><path fill="none" stroke="rgb(255,0,0)" paint-order="fill stroke markers" d=" M -134.59836744625065 130.69306930693068 C 679.4629945587371 130.69306930693068 -701.2415370761703 130.69306930693068 -78.22653447328238 130.69306930693068" stroke-opacity="1" stroke-linecap="round" stroke-miterlimit="10" stroke-dasharray=""/><path fill="rgb(0,0,0)" stroke="none" paint-order="stroke fill markers" d=" M 135.15346534653466 688.0574783616742 A 0.5 0.5 0 1 1 135.1534650965347 688.0569783617575" fill-opacity="1"/><path fill="none" stroke="rgb(255,0,0)" paint-order="fill stroke markers" d=" M -436.017759668785 134.65346534653466 C -439.0768622335112 134.65346534653466 33.311571001569774 134.65346534653466 433.7015531335486 134.65346534653466" stroke-opacity="1" stroke-linecap="round" stroke-miterlimit="10" stroke-dasharray=""/><path fill="rgb(0,0,0)" stroke="none" paint-order="stroke fill markers" d=" M 139.1138613861386 296.40562795627636 A 0.5 0.5 0 1 1 139.11386113613864 296.4051279563597" fill-opacity="1"/><path fill="none" stroke="rgb(255,0,0)" paint-order="fill stroke markers" d=" M 68.76994617834525 138.6138613861386 C 236.1543258335582 138.6138613861386 815.4618122634245 138.6138613861386 -8.666150683381467 138.6138613861386" stroke-opacity="1" stroke-linecap="round" stroke-miterlimit="10" stroke-dasharray=""/><path fill="rgb(0,0,0)" stroke="none" paint-order="stroke fill markers" d=" M 143.0742574257426 -131.6259041351109 A 0.5 0.5 0 1 1 143.07425717574262 -131.62640413502754" fill-opacity="1"/><path fill="none" stroke="rgb(255,0,0)" paint-order="fill stroke markers" d=" M 354.16110649556657 142.5742574257426 C -308.5342947920369 142.5742574257426 499.28159425843535 142.5742574257426 -661.4419029829854 142.5742574257426" stroke-opacity="1" stroke-linecap="round" stroke-miterlimit="10" stroke-dasharray=""/><path fill="rgb(0,0,0)" stroke="none" paint-order="stroke fill markers" d=" M 147.03465346534654 281.6972006248184 A 0.5 0.5 0 1 1 147.03465321534657 281.6967006249017" fill-opacity="1"/><path fill="none" stroke="rgb(255,0,0)" paint-order="fill stroke markers" d=" M -75.4247794437252 146.53465346534654 C -46.84031044202836 146.53465346534654 -673.7368037876871 146.53465346534654 -503.9566102413487 146.53465346534654" stroke-opacity="1" stroke-linecap="round" stroke-miterlimit="10" stroke-dasharray=""/><path fill="rgb(0,0,0)" stroke="none" paint-order="stroke fill markers" d=" M 150.9950495049505 679.1093203783734 A 0.5 0.5 0 1 1 150.99504925495052 679.1088203784567" fill-opacity="1"/><path fill="none" stroke="rgb(255,0,0)" paint-order="fill stroke markers" d=" M -588.2265599676906 150.4950495049505 C 457.1421939613906 150.4950495049505 246.37996898082363 150.4950495049505 -281.9500846084246 150.4950495049505" stroke-opacity="1" stroke-linecap="round" stroke-miterlimit="10" stroke-dasharray=""/><path fill="rgb(0,0,0)" stroke="none" paint-order="stroke fill markers" d=" M 154.95544554455446 286.93543009267717 A 0.5 0.5 0 1 1 154.9554452945545 286.9349300927605" fill-opacity="1"/><path fill="none" stroke="rgb(255,0,0)" paint-order="fill stroke markers" d=" M 366.10614953386545 154.45544554455446 C 739.715320473475 154.45544554455446 -415.5861954669617 154.45544554455446 700.3180217492077 154.45544554455446" stroke-opacity="1" stroke-linecap="round" stroke-miterlimit="10" stroke-dasharray=""/><path fill="rgb(0,0,0)" stroke="none" paint-order="stroke fill markers" d=" M 158.91584158415841 -165.58216500634046 A 0.5 0.5 0 1 1 158.91584133415844 -165.58266500625712" fill-opacity="1"/><path fill="none" stroke="rgb(255,0,0)" paint-order="fill stroke markers" d=" M -225.0876222118811 158.41584158415841 C 689.4512337250718 158.41584158415841 -269.74578425053994 158.41584158415841 837.7925456205231 158.41584158415841" stroke-opacity="1" stroke-linecap="round" stroke-miterlimit="10" stroke-dasharray=""/><path fill="rgb(0,0,0)" stroke="none" paint-order="stroke fill markers" d=" M 162.87623762376236 -422.3857139965846 A 0.5 0.5 0 1 1 162.8762373737624 -422.3862139965013" fill-opacity="1"/><path fill="none" stroke="rgb(255,0,0)" paint-order="fill stroke markers" d=" M -1019.5745075701411 162.37623762376236 C 837.7351701299925 162.37623762376236 379.8173418416301 162.37623762376236 -544.7994647773651 162.37623762376236" stroke-opacity="1" stroke-linecap="round" stroke-miterlimit="10" stroke-dasharray=""/><path fill="rgb(0,0,0)" stroke="none" paint-order="stroke fill markers" d=" M 166.83663366336634 757.0312872027243 A 0.5 0.5 0 1 1 166.83663341336637 757.0307872028077" fill-opacity="1"/><path fill="none" stroke="rgb(255,0,0)" paint-order="fill stroke markers" d=" M -353.3688183692395 166.33663366336634 C -86.74939088450574 166.33663366336634 -951.8651590025003 166.33663366336634 524.466177199476 166.33663366336634" stroke-opacity="1" stroke-linecap="round" stroke-miterlimit="10" stroke-dasharray=""/><path fill="rgb(0,0,0)" stroke="none" paint-order="stroke fill markers" d=" M 170.7970297029703 534.4220988069128 A 0.5 0.5 0 1 1 170.79702945297032 534.4215988069961" fill-opacity="1"/><path fill="none" stroke="rgb(255,0,0)" paint-order="fill stroke markers" d=" M 861.5044948938738 170.2970297029703 C -730.2325769315436 170.2970297029703 178.81637458726746 170.2970297029703 -193.54120155776442 170.2970297029703" stroke-opacity="1" stroke-linecap="round" stroke-miterlimit="10" stroke-dasharray=""/><path fill="rgb(0,0,0)" stroke="none" paint-order="stroke fill markers" d=" M 174.75742574257424 498.50482493388563 A 0.5 0.5 0 1 1 174.75742549257427 498.504324933969" fill-opacity="1"/><path fill="none" stroke="rgb(255,0,0)" paint-order="fill stroke markers" d=" M -857.4834478232518 174.25742574257424 C 268.22753689078206 174.25742574257424 -875.5572938503411 174.25742574257424 -206.87801486379269 174.25742574257424" stroke-opacity="1" stroke-linecap="round" stroke-miterlimit="10" stroke-dasharray=""/><path fill="rgb(0,0,0)" stroke="none" paint-order="stroke fill markers" d=" M 178.71782178217822 980.0980130388123 A 0.5 0.5 0 1 1 178.71782153217825 980.0975130388956" fill-opacity="1"/><path fill="none" stroke="rgb(255,0,0)" paint-order="fill stroke markers" d=" M -1265.662312412787 178.21782178217822 C 518.7894658212398 178.21782178217822 376.09999353226897 178.21782178217822 996.7728756427169 178.21782178217822" stroke-opacity="1" stroke-linecap="round" stroke-miterlimit="10" stroke-dasharray=""/><path fill="rgb(0,0,0)" stroke="none" paint-order="stroke fill markers" d=" M 182.67821782178217 320.34180819399785 A 0.5 0.5 0 1 1 182.6782175717822 320.3413081940812" fill-opacity="1"/><path fill="none" stroke="rgb(255,0,0)" paint-order="fill stroke markers" d=" M -25.04202795398813 182.17821782178217 C 1090.0045226196319 182.17821782178217 639.2920021545414 182.17821782178217 -928.8862920234257 182.17821782178217" stroke-opacity="1" stroke-linecap="round" stroke-miterlimit="10" stroke-dasharray=""/><path fill="rgb(0,0,0)" stroke="none" paint-order="stroke fill markers" d=" M 186.63861386138615 -24.74142739648744 A 0.5 0.5 0 1 1 186.63861361138618 -24.741927396404105" fill-opacity="1"/><path fill="none" stroke="rgb(255,0,0)" paint-order="fill stroke markers" d=" M 468.7572573575421 186.13861386138615 C -182.34718137360065 186.13861386138615 562.4492911621002 186.13861386138615 121.87618908302787 186.13861386138615" stroke-opacity="1" stroke-linecap="round" stroke-miterlimit="10" stroke-dasharray=""/><path fill="rgb(0,0,0)" stroke="none" paint-order="stroke fill markers" d=" M 190.5990099009901 170.03189661411693 A 0.5 0.5 0 1 1 190.59900965099013 170.03139661420028" fill-opacity="1"/><path fill="none" stroke="rgb(255,0,0)" paint-order="fill stroke markers" d=" M 367.74696364797825 190.0990099009901 C 177.257367807471 190.0990099009901 435.9961831592926 190.0990099009901 -118.35988929284454 190.0990099009901" stroke-opacity="1" stroke-linecap="round" stroke-miterlimit="10" stroke-dasharray=""/><path fill="rgb(0,0,0)" stroke="none" paint-order="stroke fill markers" d=" M 194.55940594059405 233.5347506712366 A 0.5 0.5 0 1 1 194.55940569059408 233.53425067131994" fill-opacity="1"/><path fill="none" stroke="rgb(255,0,0)" paint-order="fill stroke markers" d=" M -136.87089648094803 194.05940594059405 C -206.35282567304787 194.05940594059405 33.70045063196338 194.05940594059405 -201.04057929175318 194.05940594059405" stroke-opacity="1" stroke-linecap="round" stroke-miterlimit="10" stroke-dasharray=""/><path fill="rgb(0,0,0)" stroke="none" paint-order="stroke fill markers" d=" M 198.51980198019803 104.88750220647668 A 0.5 0.5 0 1 1 198.51980173019805 104.88700220656001" fill-opacity="1"/><path fill="none" stroke="rgb(255,0,0)" paint-order="fill stroke markers" d=" M 167.9410393628643 198.01980198019803 C -27.369763040678883 198.01980198019803 137.1693651031308 198.01980198019803 -119.56999386812653 198.01980198019803" stroke-opacity="1" stroke-linecap="round" stroke-miterlimit="10" stroke-dasharray=""/><path fill="rgb(0,0,0)" stroke="none" paint-order="stroke fill markers" d=" M 202.48019801980197 -9.255759973870028 A 0.5 0.5 0 1 1 202.480197769802 -9.256259973786694" fill-opacity="1"/><path fill="none" stroke="rgb(255,0,0)" paint-order="fill stroke markers" d=" M 218.88347253298699 201.98019801980197 C 106.75692177819101 201.98019801980197 2.920636580865873 201.98019801980197 -18.391903220089468 201.98019801980197" stroke-opacity="1" stroke-linecap="round" stroke-miterlimit="10" stroke-dasharray=""/><path fill="rgb(0,0,0)" stroke="none" paint-order="stroke fill markers" d=" M 206.44059405940595 122.48219377446128 A 0.5 0.5 0 1 1 206.44059380940598 122.48169377454461" fill-opacity="1"/><path fill="none" stroke="rgb(255,0,0)" paint-order="fill stroke markers" d=" M 82.79900740483656 205.94059405940595 C 24.904670922029517 205.94059405940595 -134.59754269595877 205.94059405940595 -188.98302680882588 205.94059405940595" stroke-opacity="1" stroke-linecap="round" stroke-miterlimit="10" stroke-dasharray=""/><path fill="rgb(0,0,0)" stroke="none" paint-order="stroke fill markers" d=" M 210.4009900990099 -3.248267263071938 A 0.5 0.5 0 1 1 210.40098984900993 -3.2487672629886046" fill-opacity="1"/><path fill="none" stroke="rgb(255,0,0)" paint-order="fill stroke markers" d=" M -327.8801960086557 209.9009900990099 C 189.28587866391408 209.9009900990099 293.01496419646196 209.9009900990099 -183.20902564544176 209.9009900990099" stroke-opacity="1" stroke-linecap="round" stroke-miterlimit="10" stroke-dasharray=""/><path fill="rgb(0,0,0)" stroke="none" paint-order="stroke fill markers" d=" M 214.36138613861385 139.69921669350083 A 0.5 0.5 0 1 1 214.36138588861388 139.69871669358417" fill-opacity="1"/><path fill="none" stroke="rgb(255,0,0)" paint-order="fill stroke markers" d=" M -251.63130242880297 213.86138613861385 C -28.850926367143977 213.86138613861385 135.82831404691515 213.86138613861385 -147.57185573897652 213.86138613861385" stroke-opacity="1" stroke-linecap="round" stroke-miterlimit="10" stroke-dasharray=""/><path fill="rgb(0,0,0)" stroke="none" paint-order="stroke fill markers" d=" M 218.32178217821783 210.46604781109207 A 0.5 0.5 0 1 1 218.32178192821786 210.4655478111754" fill-opacity="1"/><path fill="none" stroke="rgb(255,0,0)" paint-order="fill stroke markers" d=" M 56.47067965462851 217.82178217821783 C 137.35810190226616 217.82178217821783 22.47403734691636 217.82178217821783 -80.03213727585384 217.82178217821783" stroke-opacity="1" stroke-linecap="round" stroke-miterlimit="10" stroke-dasharray=""/><path fill="rgb(0,0,0)" stroke="none" paint-order="stroke fill markers" d=" M 222.28217821782178 100.37054798029497 A 0.5 0.5 0 1 1 222.2821779678218 100.3700479803783" fill-opacity="1"/><path fill="none" stroke="rgb(255,0,0)" paint-order="fill stroke markers" d=" M -80.08340491156447 221.78217821782178 C 79.32141989971973 221.78217821782178 -54.35598633177854 221.78217821782178 2.3387972449784162 221.78217821782178" stroke-opacity="1" stroke-linecap="round" stroke-miterlimit="10" stroke-dasharray=""/><path fill="rgb(0,0,0)" stroke="none" paint-order="stroke fill markers" d=" M 226.24257425742573 132.32156811996805 A 0.5 0.5 0 1 1 226.24257400742576 132.3210681200514" fill-opacity="1"/><path fill="none" stroke="rgb(255,0,0)" paint-order="fill stroke markers" d=" M -272.0215102304603 225.74257425742573 C 213.1259238768943 225.74257425742573 77.06174657568405 225.74257425742573 -128.3199325995031 225.74257425742573" stroke-opacity="1" stroke-linecap="round" stroke-miterlimit="10" stroke-dasharray=""/><path fill="rgb(0,0,0)" stroke="none" paint-order="stroke fill markers" d=" M 230.2029702970297 82.87403488053157 A 0.5 0.5 0 1 1 230.20297004702974 82.8735348806149" fill-opacity="1"/><path fill="none" stroke="rgb(255,0,0)" paint-order="fill stroke markers" d=" M 35.54612854828308 229.7029702970297 C -105.80266324337605 229.7029702970297 112.86117954488083 229.7029702970297 27.15209212937895 229.7029702970297" stroke-opacity="1" stroke-linecap="round" stroke-miterlimit="10" stroke-dasharray=""/><path fill="rgb(0,0,0)" stroke="none" paint-order="stroke fill markers" d=" M 234.16336633663366 97.84421212502582 A 0.5 0.5 0 1 1 234.1633660866337 97.84371212510915" fill-opacity="1"/><path fill="none" stroke="rgb(255,0,0)" paint-order="fill stroke markers" d=" M -17.793151485422317 233.66336633663366 C 70.61211405762768 233.66336633663366 -170.05152052404776 233.66336633663366 -118.36573189577982 233.66336633663366" stroke-opacity="1" stroke-linecap="round" stroke-miterlimit="10" stroke-dasharray=""/><path fill="rgb(0,0,0)" stroke="none" paint-order="stroke fill markers" d=" M 238.1237623762376 171.01024305201972 A 0.5 0.5 0 1 1 238.12376212623764 171.00974305210306" fill-opacity="1"/><path fill="none" stroke="rgb(255,0,0)" paint-order="fill stroke markers" d=" M -18.26070834340081 237.6237623762376 C 32.61136605002766 237.6237623762376 29.122430880228208 237.6237623762376 -16.847649438646094 237.6237623762376" stroke-opacity="1" stroke-linecap="round" stroke-miterlimit="10" stroke-dasharray=""/><path fill="rgb(0,0,0)" stroke="none" paint-order="stroke fill markers" d=" M 242.08415841584159 124.57339192396024 A 0.5 0.5 0 1 1 242.08415816584161 124.57289192404357" fill-opacity="1"/><path fill="none" stroke="rgb(255,0,0)" paint-order="fill stroke markers" d=" M -59.0085510492338 241.58415841584159 C 105.14966118416831 241.58415841584159 -111.45367571004807 241.58415841584159 116.59084151482531 241.58415841584159" stroke-opacity="1" stroke-linecap="round" stroke-miterlimit="10" stroke-dasharray=""/><path fill="rgb(0,0,0)" stroke="none" paint-order="stroke fill markers" d=" M 246.04455445544554 215.85896136625274 A 0.5 0.5 0 1 1 246.04455420544556 215.8584613663361" fill-opacity="1"/><path fill="none" stroke="rgb(255,0,0)" paint-order="fill stroke markers" d=" M -52.46482490653854 245.54455445544554 C -20.51916588436699 245.54455445544554 -180.44786524206404 245.54455445544554 -85.84559364198421 245.54455445544554" stroke-opacity="1" stroke-linecap="round" stroke-miterlimit="10" stroke-dasharray=""/><path fill="rgb(0,0,0)" stroke="none" paint-order="stroke fill markers" d=" M 250.0049504950495 271.086917969573 A 0.5 0.5 0 1 1 250.00495024504954 271.08641796965634" fill-opacity="1"/><path fill="none" stroke="rgb(255,0,0)" paint-order="fill stroke markers" d=" M -202.7030976504937 249.5049504950495 C -61.73261168519428 249.5049504950495 -109.45240033704285 249.5049504950495 -167.53673581885906 249.5049504950495" stroke-opacity="1" stroke-linecap="round" stroke-miterlimit="10" stroke-dasharray=""/><path fill="rgb(0,0,0)" stroke="none" paint-order="stroke fill markers" d=" M 253.96534653465346 239.18564902961148 A 0.5 0.5 0 1 1 253.9653462846535 239.18514902969483" fill-opacity="1"/><path fill="none" stroke="rgb(255,0,0)" paint-order="fill stroke markers" d=" M -57.50893555666709 253.46534653465346 C 68.04200373479603 253.46534653465346 81.02673297465918 253.46534653465346 21.375080632618854 253.46534653465346" stroke-opacity="1" stroke-linecap="round" stroke-miterlimit="10" stroke-dasharray=""/><path fill="rgb(0,0,0)" stroke="none" paint-order="stroke fill markers" d=" M 257.9257425742574 216.45706249369874 A 0.5 0.5 0 1 1 257.92574232425744 216.4565624937821" fill-opacity="1"/><path fill="none" stroke="rgb(255,0,0)" paint-order="fill stroke markers" d=" M -16.295676121714685 257.4257425742574 C -11.846457791469208 257.4257425742574 -27.246107069952213 257.4257425742574 -15.671617583769233 257.4257425742574" stroke-opacity="1" stroke-linecap="round" stroke-miterlimit="10" stroke-dasharray=""/><path fill="rgb(0,0,0)" stroke="none" paint-order="stroke fill markers" d=" M 261.88613861386136 376.93578442194934 A 0.5 0.5 0 1 1 261.8861383638614 376.9352844220327" fill-opacity="1"/><path fill="none" stroke="rgb(255,0,0)" paint-order="fill stroke markers" d=" M 324.74832746045763 261.38613861386136 C -72.48132623923962 261.38613861386136 -80.20651672613516 261.38613861386136 -233.95706966714047 261.38613861386136" stroke-opacity="1" stroke-linecap="round" stroke-miterlimit="10" stroke-dasharray=""/><path fill="rgb(0,0,0)" stroke="none" paint-order="stroke fill markers" d=" M 265.84653465346537 458.3709153106966 A 0.5 0.5 0 1 1 265.8465344034654 458.37041531077995" fill-opacity="1"/><path fill="none" stroke="rgb(255,0,0)" paint-order="fill stroke markers" d=" M -124.7495247356229 265.34653465346537 C 92.61283165451025 265.34653465346537 271.19348956823677 265.34653465346537 -140.30804334900913 265.34653465346537" stroke-opacity="1" stroke-linecap="round" stroke-miterlimit="10" stroke-dasharray=""/><path fill="rgb(0,0,0)" stroke="none" paint-order="stroke fill markers" d=" M 269.8069306930693 192.47580144391713 A 0.5 0.5 0 1 1 269.80693044306935 192.47530144400048" fill-opacity="1"/><path fill="none" stroke="rgb(255,0,0)" paint-order="fill stroke markers" d=" M 8.209611263753363 269.3069306930693 C 1.6641078378702956 269.3069306930693 13.754637844511864 269.3069306930693 7.620113796549809 269.3069306930693" stroke-opacity="1" stroke-linecap="round" stroke-miterlimit="10" stroke-dasharray=""/><path fill="rgb(0,0,0)" stroke="none" paint-order="stroke fill markers" d=" M 273.76732673267327 83.75017390362748 A 0.5 0.5 0 1 1 273.7673264826733 83.74967390371081" fill-opacity="1"/><path fill="none" stroke="rgb(255,0,0)" paint-order="fill stroke markers" d=" M -270.0898808820627 273.26732673267327 C 340.133312599181 273.26732673267327 -97.43500380259107 273.26732673267327 231.4234898514571 273.26732673267327" stroke-opacity="1" stroke-linecap="round" stroke-miterlimit="10" stroke-dasharray=""/><path fill="rgb(0,0,0)" stroke="none" paint-order="stroke fill markers" d=" M 277.7277227722772 199.7407107513531 A 0.5 0.5 0 1 1 277.72772252227725 199.74021075143645" fill-opacity="1"/><path fill="none" stroke="rgb(255,0,0)" paint-order="fill stroke markers" d=" M -68.88311055472784 277.2277227722772 C -9.507620815700323 277.2277227722772 -23.77699102718956 277.2277227722772 56.50693965744366 277.2277227722772" stroke-opacity="1" stroke-linecap="round" stroke-miterlimit="10" stroke-dasharray=""/><path fill="rgb(0,0,0)" stroke="none" paint-order="stroke fill markers" d=" M 281.68811881188117 209.57759566738667 A 0.5 0.5 0 1 1 281.6881185618812 209.57709566747002" fill-opacity="1"/><path fill="none" stroke="rgb(255,0,0)" paint-order="fill stroke markers" d=" M -19.013675512091613 281.18811881188117 C 74.26680236965095 281.18811881188117 -298.6458241562853 281.18811881188117 322.19122362320417 281.18811881188117" stroke-opacity="1" stroke-linecap="round" stroke-miterlimit="10" stroke-dasharray=""/><path fill="rgb(0,0,0)" stroke="none" paint-order="stroke fill markers" d=" M 285.6485148514852 24.061895371973378 A 0.5 0.5 0 1 1 285.6485146014852 24.06139537205671" fill-opacity="1"/><path fill="none" stroke="rgb(255,0,0)" paint-order="fill stroke markers" d=" M 246.2357805369758 285.1485148514852 C -73.29937103191398 285.1485148514852 379.254030251308 285.1485148514852 -37.775040132146366 285.1485148514852" stroke-opacity="1" stroke-linecap="round" stroke-miterlimit="10" stroke-dasharray=""/><path fill="rgb(0,0,0)" stroke="none" paint-order="stroke fill markers" d=" M 289.6089108910891 437.7383839613168 A 0.5 0.5 0 1 1 289.60891064108915 437.73788396140014" fill-opacity="1"/><path fill="none" stroke="rgb(255,0,0)" paint-order="fill stroke markers" d=" M -517.7516482492915 289.1089108910891 C 167.87843643866992 289.1089108910891 33.269922679541 289.1089108910891 -688.0236586558217 289.1089108910891" stroke-opacity="1" stroke-linecap="round" stroke-miterlimit="10" stroke-dasharray=""/><path fill="rgb(0,0,0)" stroke="none" paint-order="stroke fill markers" d=" M 293.5693069306931 554.3094061405793 A 0.5 0.5 0 1 1 293.5693066806931 554.3089061406627" fill-opacity="1"/><path fill="none" stroke="rgb(255,0,0)" paint-order="fill stroke markers" d=" M -70.17784412948988 293.0693069306931 C -832.2581088907648 293.0693069306931 -444.03867948922584 293.0693069306931 -723.8699761549234 293.0693069306931" stroke-opacity="1" stroke-linecap="round" stroke-miterlimit="10" stroke-dasharray=""/><path fill="rgb(0,0,0)" stroke="none" paint-order="stroke fill markers" d=" M 297.529702970297 1226.3617832470281 A 0.5 0.5 0 1 1 297.52970272029705 1226.3612832471115" fill-opacity="1"/><path fill="none" stroke="rgb(255,0,0)" paint-order="fill stroke markers" d=" M -800.67975713428 297.029702970297 C 217.76873907878834 297.029702970297 -336.10262057057764 297.029702970297 845.7499183309341 297.029702970297" stroke-opacity="1" stroke-linecap="round" stroke-miterlimit="10" stroke-dasharray=""/><path fill="rgb(0,0,0)" stroke="none" paint-order="stroke fill markers" d=" M 301.490099009901 -1634.7086859696701 A 0.5 0.5 0 1 1 301.490098759901 -1634.7091859695868" fill-opacity="1"/><path fill="none" stroke="rgb(255,0,0)" paint-order="fill stroke markers" d=" M 810.308889443986 300.990099009901 C -1563.851319909794 300.990099009901 1386.5893024915633 300.990099009901 -1143.4505556983454 300.990099009901" stroke-opacity="1" stroke-linecap="round" stroke-miterlimit="10" stroke-dasharray=""/><path fill="rgb(0,0,0)" stroke="none" paint-order="stroke fill markers" d=" M 305.4504950495049 682.8498519896075 A 0.5 0.5 0 1 1 305.45049479950495 682.8493519896908" fill-opacity="1"/><path fill="none" stroke="rgb(255,0,0)" paint-order="fill stroke markers" d=" M 1571.6188211645199 304.9504950495049 C 1409.307007259596 304.9504950495049 1706.487036121982 304.9504950495049 -1141.6079544782162 304.9504950495049" stroke-opacity="1" stroke-linecap="round" stroke-miterlimit="10" stroke-dasharray=""/><path fill="rgb(0,0,0)" stroke="none" paint-order="stroke fill markers" d=" M 309.41089108910893 1630.8756656929256 A 0.5 0.5 0 1 1 309.41089083910896 1630.875165693009" fill-opacity="1"/><path fill="none" stroke="rgb(255,0,0)" paint-order="fill stroke markers" d=" M -560.197081632237 308.91089108910893 C -514.6878056107377 308.91089108910893 1323.7317078176693 308.91089108910893 -799.2487944796602 308.91089108910893" stroke-opacity="1" stroke-linecap="round" stroke-miterlimit="10" stroke-dasharray=""/><path fill="rgb(0,0,0)" stroke="none" paint-order="stroke fill markers" d=" M 313.3712871287129 159.81305777946545 A 0.5 0.5 0 1 1 313.3712868787129 159.8125577795488" fill-opacity="1"/><path fill="none" stroke="rgb(255,0,0)" paint-order="fill stroke markers" d=" M -707.6281555847348 312.8712871287129 C 144.07950822620487 312.8712871287129 1382.6356221700487 312.8712871287129 219.19902951243867 312.8712871287129" stroke-opacity="1" stroke-linecap="round" stroke-miterlimit="10" stroke-dasharray=""/><path fill="rgb(0,0,0)" stroke="none" paint-order="stroke fill markers" d=" M 317.33168316831683 -1591.238916605204 A 0.5 0.5 0 1 1 317.33168291831686 -1591.2394166051206" fill-opacity="1"/><path fill="none" stroke="rgb(255,0,0)" paint-order="fill stroke markers" d=" M 589.9964614656118 316.83168316831683 C -695.9562018793509 316.83168316831683 -1560.867985215606 316.83168316831683 226.73413941484355 316.83168316831683" stroke-opacity="1" stroke-linecap="round" stroke-miterlimit="10" stroke-dasharray=""/><path fill="rgb(0,0,0)" stroke="none" paint-order="stroke fill markers" d=" M 321.2920792079208 365.832032379775 A 0.5 0.5 0 1 1 321.2920789579208 365.83153237985834" fill-opacity="1"/><path fill="none" stroke="rgb(255,0,0)" paint-order="fill stroke markers" d=" M -431.80140411469216 320.7920792079208 C 1103.5328754101106 320.7920792079208 231.70138393195944 320.7920792079208 -590.7534330814728 320.7920792079208" stroke-opacity="1" stroke-linecap="round" stroke-miterlimit="10" stroke-dasharray=""/><path fill="rgb(0,0,0)" stroke="none" paint-order="stroke fill markers" d=" M 325.2524752475247 1028.0693178006582 A 0.5 0.5 0 1 1 325.25247499752476 1028.0688178007415" fill-opacity="1"/><path fill="none" stroke="rgb(255,0,0)" paint-order="fill stroke markers" d=" M 1294.5070702148405 324.7524752475247 C -927.6390673311508 324.7524752475247 -820.3318988939714 324.7524752475247 -860.7092582953304 324.7524752475247" stroke-opacity="1" stroke-linecap="round" stroke-miterlimit="10" stroke-dasharray=""/><path fill="rgb(0,0,0)" stroke="none" paint-order="stroke fill markers" d=" M 329.21287128712873 -937.5715652833519 A 0.5 0.5 0 1 1 329.21287103712876 -937.5720652832686" fill-opacity="1"/><path fill="none" stroke="rgb(255,0,0)" paint-order="fill stroke markers" d=" M -1297.2582661701424 328.71287128712873 C -1060.3850763659493 328.71287128712873 -1246.5498007744704 328.71287128712873 -1011.2341550615841 328.71287128712873" stroke-opacity="1" stroke-linecap="round" stroke-miterlimit="10" stroke-dasharray=""/><path fill="rgb(0,0,0)" stroke="none" paint-order="stroke fill markers" d=" M 333.1732673267327 1637.83509068459 A 0.5 0.5 0 1 1 333.1732670767327 1637.8345906846735" fill-opacity="1"/><path fill="none" stroke="rgb(255,0,0)" paint-order="fill stroke markers" d=" M -1746.8620157321277 332.6732673267327 C 617.329113223829 332.6732673267327 1786.5455702339514 332.6732673267327 492.88405376886305 332.6732673267327" stroke-opacity="1" stroke-linecap="round" stroke-miterlimit="10" stroke-dasharray=""/><path fill="rgb(0,0,0)" stroke="none" paint-order="stroke fill markers" d=" M 337.13366336633663 198.271909589796 A 0.5 0.5 0 1 1 337.13366311633666 198.27140958987934" fill-opacity="1"/><path fill="none" stroke="rgb(255,0,0)" paint-order="fill stroke markers" d=" M 106.74003256709914 336.63366336633663 C -963.5478273085504 336.63366336633663 1765.1546363462792 336.63366336633663 464.43875543759066 336.63366336633663" stroke-opacity="1" stroke-linecap="round" stroke-miterlimit="10" stroke-dasharray=""/><path fill="rgb(0,0,0)" stroke="none" paint-order="stroke fill markers" d=" M 341.0940594059406 362.5861536472796 A 0.5 0.5 0 1 1 341.0940591559406 362.58565364736296" fill-opacity="1"/><path fill="none" stroke="rgb(255,0,0)" paint-order="fill stroke markers" d=" M -1011.9819703896025 340.5940594059406 C -1151.5729814819842 340.5940594059406 -1127.5919539725658 340.5940594059406 -265.7317744638377 340.5940594059406" stroke-opacity="1" stroke-linecap="round" stroke-miterlimit="10" stroke-dasharray=""/><path fill="rgb(0,0,0)" stroke="none" paint-order="stroke fill markers" d=" M 345.05445544554453 -1405.9575394999952 A 0.5 0.5 0 1 1 345.05445519554456 -1405.9580394999118" fill-opacity="1"/><path fill="none" stroke="rgb(255,0,0)" paint-order="fill stroke markers" d=" M 1748.1902683351493 344.55445544554453 C 691.9070116994775 344.55445544554453 857.7415860655736 344.55445544554453 -80.03271698864054 344.55445544554453" stroke-opacity="1" stroke-linecap="round" stroke-miterlimit="10" stroke-dasharray=""/><path fill="rgb(0,0,0)" stroke="none" paint-order="stroke fill markers" d=" M 349.0148514851485 1325.621871709861 A 0.5 0.5 0 1 1 349.0148512351485 1325.6213717099442" fill-opacity="1"/><path fill="none" stroke="rgb(255,0,0)" paint-order="fill stroke markers" d=" M -958.3455750027612 348.5148514851485 C -15.032707812688296 348.5148514851485 798.1911988309377 348.5148514851485 -877.4180655015992 348.5148514851485" stroke-opacity="1" stroke-linecap="round" stroke-miterlimit="10" stroke-dasharray=""/><path fill="rgb(0,0,0)" stroke="none" paint-order="stroke fill markers" d=" M 352.9752475247525 -658.5806781788577 A 0.5 0.5 0 1 1 352.9752472747525 -658.5811781787744" fill-opacity="1"/><path fill="none" stroke="rgb(255,0,0)" paint-order="fill stroke markers" d=" M -476.09648583000995 352.4752475247525 C -152.6010748926041 352.4752475247525 1254.92728699111 352.4752475247525 -404.8907854422308 352.4752475247525" stroke-opacity="1" stroke-linecap="round" stroke-miterlimit="10" stroke-dasharray=""/><path fill="rgb(0,0,0)" stroke="none" paint-order="stroke fill markers" d=" M 356.93564356435644 46.16557588282012 A 0.5 0.5 0 1 1 356.93564331435647 46.16507588290345" fill-opacity="1"/><path fill="none" stroke="rgb(255,0,0)" paint-order="fill stroke markers" d=" M -838.551429551552 356.43564356435644 C 207.93989239367383 356.43564356435644 -673.6373306640775 356.43564356435644 -1048.464114112428 356.43564356435644" stroke-opacity="1" stroke-linecap="round" stroke-miterlimit="10" stroke-dasharray=""/><path fill="rgb(0,0,0)" stroke="none" paint-order="stroke fill markers" d=" M 360.8960396039604 677.9050115784062 A 0.5 0.5 0 1 1 360.8960393539604 677.9045115784895" fill-opacity="1"/><path fill="none" stroke="rgb(255,0,0)" paint-order="fill stroke markers" d=" M -845.366537904013 360.3960396039604 C -509.8612658957496 360.3960396039604 912.8088491872383 360.3960396039604 1422.108884257455 360.3960396039604" stroke-opacity="1" stroke-linecap="round" stroke-miterlimit="10" stroke-dasharray=""/><path fill="rgb(0,0,0)" stroke="none" paint-order="stroke fill markers" d=" M 364.85643564356434 874.7109431991348 A 0.5 0.5 0 1 1 364.85643539356437 874.7104431992182" fill-opacity="1"/><path fill="none" stroke="rgb(255,0,0)" paint-order="fill stroke markers" d=" M -820.2171291520752 364.35643564356434 C -168.51368533462315 364.35643564356434 544.2923113075991 364.35643564356434 -56.94673710504353 364.35643564356434" stroke-opacity="1" stroke-linecap="round" stroke-miterlimit="10" stroke-dasharray=""/><path fill="rgb(0,0,0)" stroke="none" paint-order="stroke fill markers" d=" M 368.8168316831683 -864.5996739393108 A 0.5 0.5 0 1 1 368.8168314331683 -864.6001739392275" fill-opacity="1"/><path fill="none" stroke="rgb(255,0,0)" paint-order="fill stroke markers" d=" M -1261.0276196569187 368.3168316831683 C -471.055183468029 368.3168316831683 1371.644028325046 368.3168316831683 -1270.0489005099198 368.3168316831683" stroke-opacity="1" stroke-linecap="round" stroke-miterlimit="10" stroke-dasharray=""/><path fill="rgb(0,0,0)" stroke="none" paint-order="stroke fill markers" d=" M 372.7772277227723 1541.9066880188257 A 0.5 0.5 0 1 1 372.7772274727723 1541.906188018909" fill-opacity="1"/><path fill="none" stroke="rgb(255,0,0)" paint-order="fill stroke markers" d=" M -787.7356953301571 372.2772277227723 C -1651.4468683786172 372.2772277227723 -328.5468411977557 372.2772277227723 814.8110203450263 372.2772277227723" stroke-opacity="1" stroke-linecap="round" stroke-miterlimit="10" stroke-dasharray=""/><path fill="rgb(0,0,0)" stroke="none" paint-order="stroke fill markers" d=" M 376.73762376237624 1062.6659845007157 A 0.5 0.5 0 1 1 376.7376235123763 1062.665484500799" fill-opacity="1"/><path fill="none" stroke="rgb(255,0,0)" paint-order="fill stroke markers" d=" M -1251.671520581283 376.23762376237624 C -723.8123413517023 376.23762376237624 -312.97127628658257 376.23762376237624 0.1714726973822498 376.23762376237624" stroke-opacity="1" stroke-linecap="round" stroke-miterlimit="10" stroke-dasharray=""/><path fill="rgb(0,0,0)" stroke="none" paint-order="stroke fill markers" d=" M 380.6980198019802 23.047257552916562 A 0.5 0.5 0 1 1 380.6980195519802 23.046757552999896" fill-opacity="1"/><path fill="none" stroke="rgb(255,0,0)" paint-order="fill stroke markers" d=" M 154.93595384300912 380.1980198019802 C -1000.4043178749148 380.1980198019802 -1227.3308249769027 380.1980198019802 -1155.0693551341305 380.1980198019802" stroke-opacity="1" stroke-linecap="round" stroke-miterlimit="10" stroke-dasharray=""/><path fill="rgb(0,0,0)" stroke="none" paint-order="stroke fill markers" d=" M 384.65841584158414 -408.89280567904484 A 0.5 0.5 0 1 1 384.6584155915842 -408.8933056789615" fill-opacity="1"/><path fill="none" stroke="rgb(255,0,0)" paint-order="fill stroke markers" d=" M 912.4879638650892 384.15841584158414 C -357.4061675008061 384.15841584158414 -436.66049851228956 384.15841584158414 483.8118700507031 384.15841584158414" stroke-opacity="1" stroke-linecap="round" stroke-miterlimit="10" stroke-dasharray=""/><path fill="rgb(0,0,0)" stroke="none" paint-order="stroke fill markers" d=" M 388.6188118811881 -270.80267457681805 A 0.5 0.5 0 1 1 388.6188116311881 -270.8031745767347" fill-opacity="1"/><path fill="none" stroke="rgb(255,0,0)" paint-order="fill stroke markers" d=" M 461.6989400127989 388.1188118811881 C 115.30020725436859 388.1188118811881 527.307030337809 388.1188118811881 -283.6600481550839 388.1188118811881" stroke-opacity="1" stroke-linecap="round" stroke-miterlimit="10" stroke-dasharray=""/><path fill="rgb(0,0,0)" stroke="none" paint-order="stroke fill markers" d=" M 392.5792079207921 -104.24203103797333 A 0.5 0.5 0 1 1 392.57920767079213 -104.24253103789" fill-opacity="1"/><path fill="none" stroke="rgb(255,0,0)" paint-order="fill stroke markers" d=" M 24.466072776457548 392.0792079207921 C -914.1658613672678 392.0792079207921 710.3232432179162 392.0792079207921 -531.0851584368692 392.0792079207921" stroke-opacity="1" stroke-linecap="round" stroke-miterlimit="10" stroke-dasharray=""/><path fill="rgb(0,0,0)" stroke="none" paint-order="stroke fill markers" d=" M 396.53960396039605 -359.7550157878809 A 0.5 0.5 0 1 1 396.5396037103961 -359.75551578779755" fill-opacity="1"/><path fill="none" stroke="rgb(255,0,0)" paint-order="fill stroke markers" d=" M -169.91043331756313 396.03960396039605 C -502.6653787051031 396.03960396039605 -334.0334321058061 396.03960396039605 916.9240097117371 396.03960396039605" stroke-opacity="1" stroke-linecap="round" stroke-miterlimit="10" stroke-dasharray=""/><g><path fill="none" stroke="rgb(0,0,0)" paint-order="fill stroke markers" d=" M 1067.1769287421002 1085.9098708391678 L 1157.5201783895645 1085.9098708391678 L 1157.5201783895645 1312.3113628983642 L 1067.1769287421002 1312.3113628983642 L 1067.1769287421002 1085.9098708391678 Z" stroke-opacity="1" stroke-linecap="round" stroke-miterlimit="10" stroke-dasharray=""/></g><g><path fill="none" stroke="rgb(0,0,0)" paint-order="fill stroke markers" d=" M 2581.2848973838913 1558.6517543904567 L 2686.7698319266524 1558.6517543904567 L 2686.7698319266524 1769.7291436967132 L 2581.2848973838913 1769.7291436967132 L 2581.2848973838913 1558.6517543904567 Z" stroke-opacity="1" stroke-linecap="round" stroke-miterlimit="10" stroke-dasharray=""/></g><g><path fill="none" stroke="rgb(0,0,0)" paint-order="fill stroke markers" d=" M 194.3648799972071 1908.615072504044 L 290.7539792675289 1908.615072504044 L 290.7539792675289 2110.802007795332 L 194.3648799972071 2110.802007795332 L 194.3648799972071 1908.615072504044 Z" stroke-opacity="1" stroke-linecap="round" stroke-miterlimit="10" stroke-dasharray=""/></g><g><path fill="none" stroke="rgb(0,0,0)" paint-order="fill stroke markers" d=" M 143.2540507254493 1381.9737153718709 L 210.80346665504484 1381.9737153718709 L 210.80346665504484 1629.4916667867549 L 143.2540507254493 1629.4916667867549 L 143.2540507254493 1381.9737153718709 Z" stroke-opacity="1" stroke-linecap="round" stroke-miterlimit="10" stroke-dasharray=""/></g><g><path fill="none" stroke="rgb(0,0,0)" paint-order="fill stroke markers" d=" M 117.6625066405708 -109.83890270273832 L 236.24866523266223 -109.83890270273832 L 236.24866523266223 152.14975849476235 L 117.6625066405708 152.14975849476235 L 117.6625066405708 -109.83890270273832 Z" stroke-opacity="1" stroke-linecap="round" stroke-miterlimit="10" stroke-dasharray=""/></g><g><path fill="none" stroke="rgb(0,0,0)" paint-order="fill stroke markers" d=" M 132.98308674953435 -824.602450344998 L 231.80575439181564 -824.602450344998 L 231.80575439181564 -577.9854294192221 L 132.98308674953435 -577.9854294192221 L 132.98308674953435 -824.602450344998 Z" stroke-opacity="1" stroke-linecap="round" stroke-miterlimit="10" stroke-dasharray=""/></g><g><path fill="none" stroke="rgb(0,0,0)" paint-order="fill stroke markers" d=" M 1022.9678387362761 984.5993185021705 L 1077.6920547481461 984.5993185021705 L 1077.6920547481461 1261.0060234438752 L 1022.9678387362761 1261.0060234438752 L 1022.9678387362761 984.5993185021705 Z" stroke-opacity="1" stroke-linecap="round" stroke-miterlimit="10" stroke-dasharray=""/></g></g></svg>